<?xml version="1.0" encoding="utf-8"?>
<!-- Generated by IcoMoon.io -->
<!DOCTYPE svg PUBLIC "-//W3C//DTD SVG 1.1//EN" "http://www.w3.org/Graphics/SVG/1.1/DTD/svg11.dtd">
<svg version="1.1" xmlns="http://www.w3.org/2000/svg" xmlns:xlink="http://www.w3.org/1999/xlink" width="1024" height="1024" viewBox="0 0 1024 1024"><g id="icomoon-ignore">
</g>
<path d="M233 3.6h682q62 0 62 62v744q0 20.666-14.88 35.546l-52.906 52.906q-6.614 6.614-10.746 4.546t-4.134-10.334v-785.334q0-8.266-6.2-14.466t-14.466-6.2h-578.666q-20.666 0-35.546 14.88l-52.906 52.906q-6.614 6.614-4.546 10.746t10.334 4.134h578.666q8.266 0 14.466 6.2t6.2 14.466v785.334q0 8.266-6.2 14.466t-14.466 6.2h-702.666q-8.266 0-14.466-6.2t-6.2-14.466v-806q0-20.666 14.88-35.546l114.906-114.906q14.88-14.88 35.546-14.88z"></path>
</svg>
