<?xml version="1.0" encoding="UTF-8" standalone="no"?>
<!DOCTYPE svg PUBLIC "-//W3C//DTD SVG 1.1//EN"
 "http://www.w3.org/Graphics/SVG/1.1/DTD/svg11.dtd">
<!-- Generated by graphviz version 2.42.3 (20191010.1750)
 -->
<!-- Title: controllers_diagram Pages: 1 -->
<svg width="369pt" height="477pt"
 viewBox="0.00 0.00 369.32 477.00" xmlns="http://www.w3.org/2000/svg" xmlns:xlink="http://www.w3.org/1999/xlink">
<g id="graph0" class="graph" transform="scale(1 1) rotate(0) translate(4 473)">
<title>controllers_diagram</title>
<polygon fill="transparent" stroke="transparent" points="-4,4 -4,-473 365.32,-473 365.32,4 -4,4"/>
<!-- _diagram_info -->
<g id="node1" class="node">
<title>_diagram_info</title>
<text text-anchor="start" x="176" y="-198.6" font-family="Times,serif" font-size="13.00">Controllers diagram</text>
<text text-anchor="start" x="176" y="-185.6" font-family="Times,serif" font-size="13.00">Date: Apr 07 2020 &#45; 14:18</text>
<text text-anchor="start" x="176" y="-172.6" font-family="Times,serif" font-size="13.00">Migration version: 1</text>
<text text-anchor="start" x="176" y="-159.6" font-family="Times,serif" font-size="13.00">Generated by RailRoady 1.5.3</text>
<text text-anchor="start" x="176" y="-146.6" font-family="Times,serif" font-size="13.00">http://railroady.prestonlee.com</text>
</g>
<!-- ApplicationController -->
<g id="node2" class="node">
<title>ApplicationController</title>
<path fill="none" stroke="black" d="M180,-238.5C180,-238.5 295.64,-238.5 295.64,-238.5 301.64,-238.5 307.64,-244.5 307.64,-250.5 307.64,-250.5 307.64,-316.5 307.64,-316.5 307.64,-322.5 301.64,-328.5 295.64,-328.5 295.64,-328.5 180,-328.5 180,-328.5 174,-328.5 168,-322.5 168,-316.5 168,-316.5 168,-250.5 168,-250.5 168,-244.5 174,-238.5 180,-238.5"/>
<text text-anchor="middle" x="237.82" y="-313.3" font-family="Times,serif" font-size="14.00">ApplicationController</text>
<polyline fill="none" stroke="black" points="168,-306.5 307.64,-306.5 "/>
<text text-anchor="start" x="176" y="-291.3" font-family="Times,serif" font-size="14.00">allow_cors</text>
<polyline fill="none" stroke="black" points="168,-284.5 307.64,-284.5 "/>
<polyline fill="none" stroke="black" points="168,-260.5 307.64,-260.5 "/>
<text text-anchor="start" x="176" y="-245.3" font-family="Times,serif" font-size="14.00">_layout</text>
</g>
<!-- BiblesController -->
<g id="node3" class="node">
<title>BiblesController</title>
<path fill="none" stroke="black" d="M264,-364.5C264,-364.5 349.32,-364.5 349.32,-364.5 355.32,-364.5 361.32,-370.5 361.32,-376.5 361.32,-376.5 361.32,-456.5 361.32,-456.5 361.32,-462.5 355.32,-468.5 349.32,-468.5 349.32,-468.5 264,-468.5 264,-468.5 258,-468.5 252,-462.5 252,-456.5 252,-456.5 252,-376.5 252,-376.5 252,-370.5 258,-364.5 264,-364.5"/>
<text text-anchor="middle" x="306.66" y="-453.3" font-family="Times,serif" font-size="14.00">BiblesController</text>
<polyline fill="none" stroke="black" points="252,-446.5 361.32,-446.5 "/>
<text text-anchor="start" x="260" y="-431.3" font-family="Times,serif" font-size="14.00">index</text>
<text text-anchor="start" x="260" y="-417.3" font-family="Times,serif" font-size="14.00">show</text>
<polyline fill="none" stroke="black" points="252,-410.5 361.32,-410.5 "/>
<polyline fill="none" stroke="black" points="252,-386.5 361.32,-386.5 "/>
<text text-anchor="start" x="260" y="-371.3" font-family="Times,serif" font-size="14.00">_layout</text>
</g>
<!-- VersesController -->
<g id="node4" class="node">
<title>VersesController</title>
<path fill="none" stroke="black" d="M40,-126.5C40,-126.5 126.09,-126.5 126.09,-126.5 132.09,-126.5 138.09,-132.5 138.09,-138.5 138.09,-138.5 138.09,-260.5 138.09,-260.5 138.09,-266.5 132.09,-272.5 126.09,-272.5 126.09,-272.5 40,-272.5 40,-272.5 34,-272.5 28,-266.5 28,-260.5 28,-260.5 28,-138.5 28,-138.5 28,-132.5 34,-126.5 40,-126.5"/>
<text text-anchor="middle" x="83.04" y="-257.3" font-family="Times,serif" font-size="14.00">VersesController</text>
<polyline fill="none" stroke="black" points="28,-250.5 138.09,-250.5 "/>
<text text-anchor="start" x="36" y="-235.3" font-family="Times,serif" font-size="14.00">chapters</text>
<text text-anchor="start" x="36" y="-221.3" font-family="Times,serif" font-size="14.00">search</text>
<text text-anchor="start" x="36" y="-207.3" font-family="Times,serif" font-size="14.00">show</text>
<text text-anchor="start" x="36" y="-193.3" font-family="Times,serif" font-size="14.00">verses</text>
<polyline fill="none" stroke="black" points="28,-186.5 138.09,-186.5 "/>
<polyline fill="none" stroke="black" points="28,-162.5 138.09,-162.5 "/>
<text text-anchor="start" x="36" y="-147.3" font-family="Times,serif" font-size="14.00">_layout</text>
<text text-anchor="start" x="36" y="-133.3" font-family="Times,serif" font-size="14.00">set_context</text>
</g>
<!-- TestamentsController -->
<g id="node5" class="node">
<title>TestamentsController</title>
<path fill="none" stroke="black" d="M12,-308.5C12,-308.5 124.33,-308.5 124.33,-308.5 130.33,-308.5 136.33,-314.5 136.33,-320.5 136.33,-320.5 136.33,-400.5 136.33,-400.5 136.33,-406.5 130.33,-412.5 124.33,-412.5 124.33,-412.5 12,-412.5 12,-412.5 6,-412.5 0,-406.5 0,-400.5 0,-400.5 0,-320.5 0,-320.5 0,-314.5 6,-308.5 12,-308.5"/>
<text text-anchor="middle" x="68.16" y="-397.3" font-family="Times,serif" font-size="14.00">TestamentsController</text>
<polyline fill="none" stroke="black" points="0,-390.5 136.33,-390.5 "/>
<text text-anchor="start" x="8" y="-375.3" font-family="Times,serif" font-size="14.00">index</text>
<text text-anchor="start" x="8" y="-361.3" font-family="Times,serif" font-size="14.00">show</text>
<polyline fill="none" stroke="black" points="0,-354.5 136.33,-354.5 "/>
<polyline fill="none" stroke="black" points="0,-330.5 136.33,-330.5 "/>
<text text-anchor="start" x="8" y="-315.3" font-family="Times,serif" font-size="14.00">_layout</text>
</g>
<!-- BooksController -->
<g id="node6" class="node">
<title>BooksController</title>
<path fill="none" stroke="black" d="M180,-0.5C180,-0.5 265.33,-0.5 265.33,-0.5 271.33,-0.5 277.33,-6.5 277.33,-12.5 277.33,-12.5 277.33,-92.5 277.33,-92.5 277.33,-98.5 271.33,-104.5 265.33,-104.5 265.33,-104.5 180,-104.5 180,-104.5 174,-104.5 168,-98.5 168,-92.5 168,-92.5 168,-12.5 168,-12.5 168,-6.5 174,-0.5 180,-0.5"/>
<text text-anchor="middle" x="222.67" y="-89.3" font-family="Times,serif" font-size="14.00">BooksController</text>
<polyline fill="none" stroke="black" points="168,-82.5 277.33,-82.5 "/>
<text text-anchor="start" x="176" y="-67.3" font-family="Times,serif" font-size="14.00">index</text>
<text text-anchor="start" x="176" y="-53.3" font-family="Times,serif" font-size="14.00">show</text>
<polyline fill="none" stroke="black" points="168,-46.5 277.33,-46.5 "/>
<polyline fill="none" stroke="black" points="168,-22.5 277.33,-22.5 "/>
<text text-anchor="start" x="176" y="-7.3" font-family="Times,serif" font-size="14.00">_layout</text>
</g>
</g>
</svg>
