<?xml version="1.0" encoding="UTF-8" standalone="no"?>
<!DOCTYPE svg PUBLIC "-//W3C//DTD SVG 1.1//EN"
 "http://www.w3.org/Graphics/SVG/1.1/DTD/svg11.dtd">
<!-- Generated by graphviz version 2.38.0 (20140413.2041)
 -->
<!-- Title: controllers_diagram Pages: 1 -->
<svg width="550pt" height="407pt"
 viewBox="0.00 0.00 549.83 407.00" xmlns="http://www.w3.org/2000/svg" xmlns:xlink="http://www.w3.org/1999/xlink">
<g id="graph0" class="graph" transform="scale(1 1) rotate(0) translate(213.666 319.5)">
<title>controllers_diagram</title>
<polygon fill="none" stroke="none" points="-213.666,87.5 -213.666,-319.5 336.163,-319.5 336.163,87.5 -213.666,87.5"/>
<!-- _diagram_info -->
<g id="node1" class="node"><title>_diagram_info</title>
<text text-anchor="start" x="106.28" y="-157.1" font-family="Times,serif" font-size="13.00">Controllers diagram</text>
<text text-anchor="start" x="106.28" y="-144.1" font-family="Times,serif" font-size="13.00">Date: Dec 09 2015 &#45; 11:40</text>
<text text-anchor="start" x="106.28" y="-131.1" font-family="Times,serif" font-size="13.00">Migration version: 1</text>
<text text-anchor="start" x="106.28" y="-118.1" font-family="Times,serif" font-size="13.00">Generated by RailRoady 1.4.2</text>
<text text-anchor="start" x="106.28" y="-105.1" font-family="Times,serif" font-size="13.00">http://railroady.prestonlee.com</text>
</g>
<!-- ApplicationController -->
<g id="node2" class="node"><title>ApplicationController</title>
<path fill="none" stroke="black" d="M-57.8208,-99C-57.8208,-99 57.8208,-99 57.8208,-99 63.8208,-99 69.8208,-105 69.8208,-111 69.8208,-111 69.8208,-177 69.8208,-177 69.8208,-183 63.8208,-189 57.8208,-189 57.8208,-189 -57.8208,-189 -57.8208,-189 -63.8208,-189 -69.8208,-183 -69.8208,-177 -69.8208,-177 -69.8208,-111 -69.8208,-111 -69.8208,-105 -63.8208,-99 -57.8208,-99"/>
<text text-anchor="middle" x="0" y="-173.8" font-family="Times,serif" font-size="14.00">ApplicationController</text>
<polyline fill="none" stroke="black" points="-69.8208,-167 69.8208,-167 "/>
<text text-anchor="start" x="-61.8208" y="-151.8" font-family="Times,serif" font-size="14.00">allow_cors</text>
<polyline fill="none" stroke="black" points="-69.8208,-145 69.8208,-145 "/>
<polyline fill="none" stroke="black" points="-69.8208,-121 69.8208,-121 "/>
<text text-anchor="start" x="-61.8208" y="-105.8" font-family="Times,serif" font-size="14.00">_layout</text>
</g>
<!-- BiblesController -->
<g id="node3" class="node"><title>BiblesController</title>
<path fill="none" stroke="black" d="M-197.662,-71C-197.662,-71 -112.338,-71 -112.338,-71 -106.338,-71 -100.338,-77 -100.338,-83 -100.338,-83 -100.338,-163 -100.338,-163 -100.338,-169 -106.338,-175 -112.338,-175 -112.338,-175 -197.662,-175 -197.662,-175 -203.662,-175 -209.662,-169 -209.662,-163 -209.662,-163 -209.662,-83 -209.662,-83 -209.662,-77 -203.662,-71 -197.662,-71"/>
<text text-anchor="middle" x="-155" y="-159.8" font-family="Times,serif" font-size="14.00">BiblesController</text>
<polyline fill="none" stroke="black" points="-209.662,-153 -100.338,-153 "/>
<text text-anchor="start" x="-201.662" y="-137.8" font-family="Times,serif" font-size="14.00">index</text>
<text text-anchor="start" x="-201.662" y="-123.8" font-family="Times,serif" font-size="14.00">show</text>
<polyline fill="none" stroke="black" points="-209.662,-117 -100.338,-117 "/>
<polyline fill="none" stroke="black" points="-209.662,-93 -100.338,-93 "/>
<text text-anchor="start" x="-201.662" y="-77.8" font-family="Times,serif" font-size="14.00">_layout</text>
</g>
<!-- BooksController -->
<g id="node4" class="node"><title>BooksController</title>
<path fill="none" stroke="black" d="M-197.666,-211C-197.666,-211 -112.334,-211 -112.334,-211 -106.334,-211 -100.334,-217 -100.334,-223 -100.334,-223 -100.334,-303 -100.334,-303 -100.334,-309 -106.334,-315 -112.334,-315 -112.334,-315 -197.666,-315 -197.666,-315 -203.666,-315 -209.666,-309 -209.666,-303 -209.666,-303 -209.666,-223 -209.666,-223 -209.666,-217 -203.666,-211 -197.666,-211"/>
<text text-anchor="middle" x="-155" y="-299.8" font-family="Times,serif" font-size="14.00">BooksController</text>
<polyline fill="none" stroke="black" points="-209.666,-293 -100.334,-293 "/>
<text text-anchor="start" x="-201.666" y="-277.8" font-family="Times,serif" font-size="14.00">index</text>
<text text-anchor="start" x="-201.666" y="-263.8" font-family="Times,serif" font-size="14.00">show</text>
<polyline fill="none" stroke="black" points="-209.666,-257 -100.334,-257 "/>
<polyline fill="none" stroke="black" points="-209.666,-233 -100.334,-233 "/>
<text text-anchor="start" x="-201.666" y="-217.8" font-family="Times,serif" font-size="14.00">_layout</text>
</g>
<!-- TestamentsController -->
<g id="node5" class="node"><title>TestamentsController</title>
<path fill="none" stroke="black" d="M207.837,-197C207.837,-197 320.163,-197 320.163,-197 326.163,-197 332.163,-203 332.163,-209 332.163,-209 332.163,-289 332.163,-289 332.163,-295 326.163,-301 320.163,-301 320.163,-301 207.837,-301 207.837,-301 201.837,-301 195.837,-295 195.837,-289 195.837,-289 195.837,-209 195.837,-209 195.837,-203 201.837,-197 207.837,-197"/>
<text text-anchor="middle" x="264" y="-285.8" font-family="Times,serif" font-size="14.00">TestamentsController</text>
<polyline fill="none" stroke="black" points="195.837,-279 332.163,-279 "/>
<text text-anchor="start" x="203.837" y="-263.8" font-family="Times,serif" font-size="14.00">index</text>
<text text-anchor="start" x="203.837" y="-249.8" font-family="Times,serif" font-size="14.00">show</text>
<polyline fill="none" stroke="black" points="195.837,-243 332.163,-243 "/>
<polyline fill="none" stroke="black" points="195.837,-219 332.163,-219 "/>
<text text-anchor="start" x="203.837" y="-203.8" font-family="Times,serif" font-size="14.00">_layout</text>
</g>
<!-- VersesController -->
<g id="node6" class="node"><title>VersesController</title>
<path fill="none" stroke="black" d="M95.9551,83C95.9551,83 182.045,83 182.045,83 188.045,83 194.045,77 194.045,71 194.045,71 194.045,-51 194.045,-51 194.045,-57 188.045,-63 182.045,-63 182.045,-63 95.9551,-63 95.9551,-63 89.9551,-63 83.9551,-57 83.9551,-51 83.9551,-51 83.9551,71 83.9551,71 83.9551,77 89.9551,83 95.9551,83"/>
<text text-anchor="middle" x="139" y="-47.8" font-family="Times,serif" font-size="14.00">VersesController</text>
<polyline fill="none" stroke="black" points="83.9551,-41 194.045,-41 "/>
<text text-anchor="start" x="91.9551" y="-25.8" font-family="Times,serif" font-size="14.00">chapters</text>
<text text-anchor="start" x="91.9551" y="-11.8" font-family="Times,serif" font-size="14.00">search</text>
<text text-anchor="start" x="91.9551" y="2.2" font-family="Times,serif" font-size="14.00">show</text>
<text text-anchor="start" x="91.9551" y="16.2" font-family="Times,serif" font-size="14.00">verses</text>
<polyline fill="none" stroke="black" points="83.9551,23 194.045,23 "/>
<polyline fill="none" stroke="black" points="83.9551,47 194.045,47 "/>
<text text-anchor="start" x="91.9551" y="62.2" font-family="Times,serif" font-size="14.00">_layout</text>
<text text-anchor="start" x="91.9551" y="76.2" font-family="Times,serif" font-size="14.00">set_context</text>
</g>
<!-- WelcomeController -->
<g id="node7" class="node"><title>WelcomeController</title>
<path fill="none" stroke="black" d="M-58.0327,83C-58.0327,83 44.0327,83 44.0327,83 50.0327,83 56.0327,77 56.0327,71 56.0327,71 56.0327,-51 56.0327,-51 56.0327,-57 50.0327,-63 44.0327,-63 44.0327,-63 -58.0327,-63 -58.0327,-63 -64.0327,-63 -70.0327,-57 -70.0327,-51 -70.0327,-51 -70.0327,71 -70.0327,71 -70.0327,77 -64.0327,83 -58.0327,83"/>
<text text-anchor="middle" x="-7" y="-47.8" font-family="Times,serif" font-size="14.00">WelcomeController</text>
<polyline fill="none" stroke="black" points="-70.0327,-41 56.0327,-41 "/>
<text text-anchor="start" x="-62.0327" y="-25.8" font-family="Times,serif" font-size="14.00">api</text>
<text text-anchor="start" x="-62.0327" y="-11.8" font-family="Times,serif" font-size="14.00">comparator</text>
<text text-anchor="start" x="-62.0327" y="2.2" font-family="Times,serif" font-size="14.00">index</text>
<text text-anchor="start" x="-62.0327" y="16.2" font-family="Times,serif" font-size="14.00">reader</text>
<text text-anchor="start" x="-62.0327" y="30.2" font-family="Times,serif" font-size="14.00">search</text>
<polyline fill="none" stroke="black" points="-70.0327,37 56.0327,37 "/>
<polyline fill="none" stroke="black" points="-70.0327,61 56.0327,61 "/>
<text text-anchor="start" x="-62.0327" y="76.2" font-family="Times,serif" font-size="14.00">_layout</text>
</g>
</g>
</svg>
