<?xml version="1.0" encoding="UTF-8" standalone="no"?>
<!DOCTYPE svg PUBLIC "-//W3C//DTD SVG 1.1//EN"
 "http://www.w3.org/Graphics/SVG/1.1/DTD/svg11.dtd">
<!-- Generated by graphviz version 2.42.3 (20191010.1750)
 -->
<!-- Title: models_diagram Pages: 1 -->
<svg width="354pt" height="225pt"
 viewBox="0.00 0.00 353.99 225.00" xmlns="http://www.w3.org/2000/svg" xmlns:xlink="http://www.w3.org/1999/xlink">
<g id="graph0" class="graph" transform="scale(1 1) rotate(0) translate(4 221)">
<title>models_diagram</title>
<polygon fill="transparent" stroke="transparent" points="-4,4 -4,-221 349.99,-221 349.99,4 -4,4"/>
<!-- _diagram_info -->
<g id="node1" class="node">
<title>_diagram_info</title>
<text text-anchor="start" x="8" y="-202.6" font-family="Times,serif" font-size="13.00">Models diagram</text>
<text text-anchor="start" x="8" y="-189.6" font-family="Times,serif" font-size="13.00">Date: Apr 07 2020 &#45; 14:18</text>
<text text-anchor="start" x="8" y="-176.6" font-family="Times,serif" font-size="13.00">Migration version: 1</text>
<text text-anchor="start" x="8" y="-163.6" font-family="Times,serif" font-size="13.00">Generated by RailRoady 1.5.3</text>
<text text-anchor="start" x="8" y="-150.6" font-family="Times,serif" font-size="13.00">http://railroady.prestonlee.com</text>
</g>
<!-- Verse -->
<g id="node2" class="node">
<title>Verse</title>
<ellipse fill="none" stroke="black" cx="277.72" cy="-18" rx="30" ry="18"/>
<text text-anchor="middle" x="277.72" y="-13.8" font-family="Times,serif" font-size="14.00">Verse</text>
</g>
<!-- Testament -->
<g id="node3" class="node">
<title>Testament</title>
<ellipse fill="none" stroke="black" cx="239.72" cy="-180.5" rx="46.15" ry="18"/>
<text text-anchor="middle" x="239.72" y="-176.3" font-family="Times,serif" font-size="14.00">Testament</text>
</g>
<!-- Book -->
<g id="node4" class="node">
<title>Book</title>
<ellipse fill="none" stroke="black" cx="239.72" cy="-90" rx="29.04" ry="18"/>
<text text-anchor="middle" x="239.72" y="-85.8" font-family="Times,serif" font-size="14.00">Book</text>
</g>
<!-- Testament&#45;&gt;Book -->
<g id="edge1" class="edge">
<title>Testament&#45;&gt;Book</title>
<path fill="none" stroke="#1317c0" d="M239.72,-154.19C239.72,-142.97 239.72,-129.75 239.72,-118.31"/>
<ellipse fill="none" stroke="#1317c0" cx="239.72" cy="-158.44" rx="4" ry="4"/>
<polygon fill="#1317c0" stroke="#1317c0" points="239.72,-118.01 244.22,-108.01 239.72,-113.01 239.72,-108.01 239.72,-108.01 239.72,-108.01 239.72,-113.01 235.22,-108.01 239.72,-118.01 239.72,-118.01"/>
</g>
<!-- Book&#45;&gt;Verse -->
<g id="edge2" class="edge">
<title>Book&#45;&gt;Verse</title>
<path fill="none" stroke="#612328" d="M252.43,-65.59C256.09,-58.84 260.11,-51.44 263.84,-44.57"/>
<ellipse fill="none" stroke="#612328" cx="250.44" cy="-69.25" rx="4" ry="4"/>
<polygon fill="#612328" stroke="#612328" points="263.92,-44.42 272.65,-37.78 266.31,-40.03 268.69,-35.63 268.69,-35.63 268.69,-35.63 266.31,-40.03 264.74,-33.49 263.92,-44.42 263.92,-44.42"/>
</g>
<!-- Bible -->
<g id="node5" class="node">
<title>Bible</title>
<ellipse fill="none" stroke="black" cx="316.72" cy="-90" rx="29.03" ry="18"/>
<text text-anchor="middle" x="316.72" y="-85.8" font-family="Times,serif" font-size="14.00">Bible</text>
</g>
<!-- Bible&#45;&gt;Verse -->
<g id="edge3" class="edge">
<title>Bible&#45;&gt;Verse</title>
<path fill="none" stroke="#af869a" d="M303.67,-65.59C299.92,-58.84 295.79,-51.44 291.97,-44.57"/>
<ellipse fill="none" stroke="#af869a" cx="305.73" cy="-69.27" rx="4" ry="4"/>
<polygon fill="#af869a" stroke="#af869a" points="291.85,-44.37 290.92,-33.44 289.42,-40 286.99,-35.63 286.99,-35.63 286.99,-35.63 289.42,-40 283.06,-37.82 291.85,-44.37 291.85,-44.37"/>
</g>
</g>
</svg>
