<?xml version="1.0" encoding="UTF-8" standalone="no"?>
<!DOCTYPE svg PUBLIC "-//W3C//DTD SVG 1.1//EN"
 "http://www.w3.org/Graphics/SVG/1.1/DTD/svg11.dtd">
<!-- Generated by graphviz version 2.38.0 (20140413.2041)
 -->
<!-- Title: models_diagram Pages: 1 -->
<svg width="522pt" height="467pt"
 viewBox="0.00 0.00 521.72 467.00" xmlns="http://www.w3.org/2000/svg" xmlns:xlink="http://www.w3.org/1999/xlink">
<g id="graph0" class="graph" transform="scale(1 1) rotate(0) translate(4 463)">
<title>models_diagram</title>
<polygon fill="none" stroke="none" points="-4,4 -4,-463 517.725,-463 517.725,4 -4,4"/>
<!-- _diagram_info -->
<g id="node1" class="node"><title>_diagram_info</title>
<text text-anchor="start" x="80.1421" y="-430.6" font-family="Times,serif" font-size="13.00">Models diagram</text>
<text text-anchor="start" x="80.1421" y="-417.6" font-family="Times,serif" font-size="13.00">Date: Dec 09 2015 &#45; 11:40</text>
<text text-anchor="start" x="80.1421" y="-404.6" font-family="Times,serif" font-size="13.00">Migration version: 1</text>
<text text-anchor="start" x="80.1421" y="-391.6" font-family="Times,serif" font-size="13.00">Generated by RailRoady 1.4.2</text>
<text text-anchor="start" x="80.1421" y="-378.6" font-family="Times,serif" font-size="13.00">http://railroady.prestonlee.com</text>
</g>
<!-- Bible -->
<g id="node2" class="node"><title>Bible</title>
<path fill="none" stroke="black" d="M12,-200.5C12,-200.5 235.725,-200.5 235.725,-200.5 241.725,-200.5 247.725,-206.5 247.725,-212.5 247.725,-212.5 247.725,-302.5 247.725,-302.5 247.725,-308.5 241.725,-314.5 235.725,-314.5 235.725,-314.5 12,-314.5 12,-314.5 6,-314.5 0,-308.5 0,-302.5 0,-302.5 0,-212.5 0,-212.5 0,-206.5 6,-200.5 12,-200.5"/>
<text text-anchor="middle" x="123.862" y="-299.3" font-family="Times,serif" font-size="14.00">Bible</text>
<polyline fill="none" stroke="black" points="0,-292.5 247.725,-292.5 "/>
<text text-anchor="start" x="8" y="-277.3" font-family="Times,serif" font-size="14.00">id :integer</text>
<text text-anchor="start" x="8" y="-263.3" font-family="Times,serif" font-size="14.00">name :character varying</text>
<text text-anchor="start" x="8" y="-249.3" font-family="Times,serif" font-size="14.00">abbreviation :character varying</text>
<text text-anchor="start" x="8" y="-235.3" font-family="Times,serif" font-size="14.00">slug :character varying</text>
<text text-anchor="start" x="8" y="-221.3" font-family="Times,serif" font-size="14.00">created_at :timestamp without time zone</text>
<text text-anchor="start" x="8" y="-207.3" font-family="Times,serif" font-size="14.00">updated_at :timestamp without time zone</text>
</g>
<!-- Verse -->
<g id="node5" class="node"><title>Verse</title>
<path fill="none" stroke="black" d="M145,-0.5C145,-0.5 368.725,-0.5 368.725,-0.5 374.725,-0.5 380.725,-6.5 380.725,-12.5 380.725,-12.5 380.725,-144.5 380.725,-144.5 380.725,-150.5 374.725,-156.5 368.725,-156.5 368.725,-156.5 145,-156.5 145,-156.5 139,-156.5 133,-150.5 133,-144.5 133,-144.5 133,-12.5 133,-12.5 133,-6.5 139,-0.5 145,-0.5"/>
<text text-anchor="middle" x="256.862" y="-141.3" font-family="Times,serif" font-size="14.00">Verse</text>
<polyline fill="none" stroke="black" points="133,-134.5 380.725,-134.5 "/>
<text text-anchor="start" x="141" y="-119.3" font-family="Times,serif" font-size="14.00">id :integer</text>
<text text-anchor="start" x="141" y="-105.3" font-family="Times,serif" font-size="14.00">bible_id :integer</text>
<text text-anchor="start" x="141" y="-91.3" font-family="Times,serif" font-size="14.00">book_id :integer</text>
<text text-anchor="start" x="141" y="-77.3" font-family="Times,serif" font-size="14.00">chapter :integer</text>
<text text-anchor="start" x="141" y="-63.3" font-family="Times,serif" font-size="14.00">ordinal :integer</text>
<text text-anchor="start" x="141" y="-49.3" font-family="Times,serif" font-size="14.00">text :text</text>
<text text-anchor="start" x="141" y="-35.3" font-family="Times,serif" font-size="14.00">slug :character varying</text>
<text text-anchor="start" x="141" y="-21.3" font-family="Times,serif" font-size="14.00">created_at :timestamp without time zone</text>
<text text-anchor="start" x="141" y="-7.3" font-family="Times,serif" font-size="14.00">updated_at :timestamp without time zone</text>
</g>
<!-- Bible&#45;&gt;Verse -->
<g id="edge1" class="edge"><title>Bible&#45;&gt;Verse</title>
<path fill="none" stroke="#186eb3" d="M170.895,-193.908C177.939,-184.533 185.303,-174.733 192.63,-164.982"/>
<ellipse fill="none" stroke="#186eb3" cx="168.347" cy="-197.298" rx="4.00002" ry="4.00002"/>
<polygon fill="#186eb3" stroke="#186eb3" points="192.761,-164.808 202.366,-159.516 195.765,-160.81 198.768,-156.813 198.768,-156.813 198.768,-156.813 195.765,-160.81 195.171,-154.11 192.761,-164.808 192.761,-164.808"/>
</g>
<!-- Book -->
<g id="node3" class="node"><title>Book</title>
<path fill="none" stroke="black" d="M278,-193.5C278,-193.5 501.725,-193.5 501.725,-193.5 507.725,-193.5 513.725,-199.5 513.725,-205.5 513.725,-205.5 513.725,-309.5 513.725,-309.5 513.725,-315.5 507.725,-321.5 501.725,-321.5 501.725,-321.5 278,-321.5 278,-321.5 272,-321.5 266,-315.5 266,-309.5 266,-309.5 266,-205.5 266,-205.5 266,-199.5 272,-193.5 278,-193.5"/>
<text text-anchor="middle" x="389.862" y="-306.3" font-family="Times,serif" font-size="14.00">Book</text>
<polyline fill="none" stroke="black" points="266,-299.5 513.725,-299.5 "/>
<text text-anchor="start" x="274" y="-284.3" font-family="Times,serif" font-size="14.00">id :integer</text>
<text text-anchor="start" x="274" y="-270.3" font-family="Times,serif" font-size="14.00">testament_id :integer</text>
<text text-anchor="start" x="274" y="-256.3" font-family="Times,serif" font-size="14.00">ordinal :integer</text>
<text text-anchor="start" x="274" y="-242.3" font-family="Times,serif" font-size="14.00">name :character varying</text>
<text text-anchor="start" x="274" y="-228.3" font-family="Times,serif" font-size="14.00">slug :character varying</text>
<text text-anchor="start" x="274" y="-214.3" font-family="Times,serif" font-size="14.00">created_at :timestamp without time zone</text>
<text text-anchor="start" x="274" y="-200.3" font-family="Times,serif" font-size="14.00">updated_at :timestamp without time zone</text>
</g>
<!-- Book&#45;&gt;Verse -->
<g id="edge2" class="edge"><title>Book&#45;&gt;Verse</title>
<path fill="none" stroke="#273f35" d="M337.397,-186.678C332.078,-179.599 326.632,-172.352 321.206,-165.131"/>
<ellipse fill="none" stroke="#273f35" cx="339.819" cy="-189.901" rx="4.00002" ry="4.00002"/>
<polygon fill="#273f35" stroke="#273f35" points="320.861,-164.672 318.452,-153.974 317.858,-160.674 314.854,-156.677 314.854,-156.677 314.854,-156.677 317.858,-160.674 311.257,-159.38 320.861,-164.672 320.861,-164.672"/>
</g>
<!-- Testament -->
<g id="node4" class="node"><title>Testament</title>
<path fill="none" stroke="black" d="M278,-358.5C278,-358.5 501.725,-358.5 501.725,-358.5 507.725,-358.5 513.725,-364.5 513.725,-370.5 513.725,-370.5 513.725,-446.5 513.725,-446.5 513.725,-452.5 507.725,-458.5 501.725,-458.5 501.725,-458.5 278,-458.5 278,-458.5 272,-458.5 266,-452.5 266,-446.5 266,-446.5 266,-370.5 266,-370.5 266,-364.5 272,-358.5 278,-358.5"/>
<text text-anchor="middle" x="389.862" y="-443.3" font-family="Times,serif" font-size="14.00">Testament</text>
<polyline fill="none" stroke="black" points="266,-436.5 513.725,-436.5 "/>
<text text-anchor="start" x="274" y="-421.3" font-family="Times,serif" font-size="14.00">id :integer</text>
<text text-anchor="start" x="274" y="-407.3" font-family="Times,serif" font-size="14.00">name :character varying</text>
<text text-anchor="start" x="274" y="-393.3" font-family="Times,serif" font-size="14.00">slug :character varying</text>
<text text-anchor="start" x="274" y="-379.3" font-family="Times,serif" font-size="14.00">created_at :timestamp without time zone</text>
<text text-anchor="start" x="274" y="-365.3" font-family="Times,serif" font-size="14.00">updated_at :timestamp without time zone</text>
</g>
<!-- Testament&#45;&gt;Book -->
<g id="edge3" class="edge"><title>Testament&#45;&gt;Book</title>
<path fill="none" stroke="#5bee40" d="M389.862,-350.218C389.862,-344.245 389.862,-338.115 389.862,-331.995"/>
<ellipse fill="none" stroke="#5bee40" cx="389.862" cy="-354.299" rx="4" ry="4"/>
<polygon fill="#5bee40" stroke="#5bee40" points="389.862,-331.732 394.362,-321.732 389.862,-326.732 389.862,-321.732 389.862,-321.732 389.862,-321.732 389.862,-326.732 385.362,-321.732 389.862,-331.732 389.862,-331.732"/>
</g>
</g>
</svg>
