<?xml version="1.0" encoding="UTF-8" standalone="no"?>
<!DOCTYPE svg PUBLIC "-//W3C//DTD SVG 1.1//EN"
 "http://www.w3.org/Graphics/SVG/1.1/DTD/svg11.dtd">
<!-- Generated by graphviz version 2.42.3 (20191010.1750)
 -->
<!-- Title: models_diagram Pages: 1 -->
<svg width="716pt" height="467pt"
 viewBox="0.00 0.00 715.58 467.00" xmlns="http://www.w3.org/2000/svg" xmlns:xlink="http://www.w3.org/1999/xlink">
<g id="graph0" class="graph" transform="scale(1 1) rotate(0) translate(4 463)">
<title>models_diagram</title>
<polygon fill="transparent" stroke="transparent" points="-4,4 -4,-463 711.58,-463 711.58,4 -4,4"/>
<!-- _diagram_info -->
<g id="node1" class="node">
<title>_diagram_info</title>
<text text-anchor="start" x="8" y="-430.6" font-family="Times,serif" font-size="13.00">Models diagram</text>
<text text-anchor="start" x="8" y="-417.6" font-family="Times,serif" font-size="13.00">Date: Apr 07 2020 &#45; 14:18</text>
<text text-anchor="start" x="8" y="-404.6" font-family="Times,serif" font-size="13.00">Migration version: 1</text>
<text text-anchor="start" x="8" y="-391.6" font-family="Times,serif" font-size="13.00">Generated by RailRoady 1.5.3</text>
<text text-anchor="start" x="8" y="-378.6" font-family="Times,serif" font-size="13.00">http://railroady.prestonlee.com</text>
</g>
<!-- Verse -->
<g id="node2" class="node">
<title>Verse</title>
<path fill="none" stroke="black" d="M338.86,-0.5C338.86,-0.5 562.58,-0.5 562.58,-0.5 568.58,-0.5 574.58,-6.5 574.58,-12.5 574.58,-12.5 574.58,-144.5 574.58,-144.5 574.58,-150.5 568.58,-156.5 562.58,-156.5 562.58,-156.5 338.86,-156.5 338.86,-156.5 332.86,-156.5 326.86,-150.5 326.86,-144.5 326.86,-144.5 326.86,-12.5 326.86,-12.5 326.86,-6.5 332.86,-0.5 338.86,-0.5"/>
<text text-anchor="middle" x="450.72" y="-141.3" font-family="Times,serif" font-size="14.00">Verse</text>
<polyline fill="none" stroke="black" points="326.86,-134.5 574.58,-134.5 "/>
<text text-anchor="start" x="334.86" y="-119.3" font-family="Times,serif" font-size="14.00">updated_at :timestamp without time zone</text>
<text text-anchor="start" x="334.86" y="-105.3" font-family="Times,serif" font-size="14.00">bible_id :integer</text>
<text text-anchor="start" x="334.86" y="-91.3" font-family="Times,serif" font-size="14.00">book_id :integer</text>
<text text-anchor="start" x="334.86" y="-77.3" font-family="Times,serif" font-size="14.00">chapter :integer</text>
<text text-anchor="start" x="334.86" y="-63.3" font-family="Times,serif" font-size="14.00">ordinal :integer</text>
<text text-anchor="start" x="334.86" y="-49.3" font-family="Times,serif" font-size="14.00">text :text</text>
<text text-anchor="start" x="334.86" y="-35.3" font-family="Times,serif" font-size="14.00">slug :character varying</text>
<text text-anchor="start" x="334.86" y="-21.3" font-family="Times,serif" font-size="14.00">created_at :timestamp without time zone</text>
<text text-anchor="start" x="334.86" y="-7.3" font-family="Times,serif" font-size="14.00">id :integer</text>
</g>
<!-- Testament -->
<g id="node3" class="node">
<title>Testament</title>
<path fill="none" stroke="black" d="M205.86,-358.5C205.86,-358.5 429.58,-358.5 429.58,-358.5 435.58,-358.5 441.58,-364.5 441.58,-370.5 441.58,-370.5 441.58,-446.5 441.58,-446.5 441.58,-452.5 435.58,-458.5 429.58,-458.5 429.58,-458.5 205.86,-458.5 205.86,-458.5 199.86,-458.5 193.86,-452.5 193.86,-446.5 193.86,-446.5 193.86,-370.5 193.86,-370.5 193.86,-364.5 199.86,-358.5 205.86,-358.5"/>
<text text-anchor="middle" x="317.72" y="-443.3" font-family="Times,serif" font-size="14.00">Testament</text>
<polyline fill="none" stroke="black" points="193.86,-436.5 441.58,-436.5 "/>
<text text-anchor="start" x="201.86" y="-421.3" font-family="Times,serif" font-size="14.00">id :integer</text>
<text text-anchor="start" x="201.86" y="-407.3" font-family="Times,serif" font-size="14.00">name :character varying</text>
<text text-anchor="start" x="201.86" y="-393.3" font-family="Times,serif" font-size="14.00">slug :character varying</text>
<text text-anchor="start" x="201.86" y="-379.3" font-family="Times,serif" font-size="14.00">created_at :timestamp without time zone</text>
<text text-anchor="start" x="201.86" y="-365.3" font-family="Times,serif" font-size="14.00">updated_at :timestamp without time zone</text>
</g>
<!-- Book -->
<g id="node4" class="node">
<title>Book</title>
<path fill="none" stroke="black" d="M205.86,-193.5C205.86,-193.5 429.58,-193.5 429.58,-193.5 435.58,-193.5 441.58,-199.5 441.58,-205.5 441.58,-205.5 441.58,-309.5 441.58,-309.5 441.58,-315.5 435.58,-321.5 429.58,-321.5 429.58,-321.5 205.86,-321.5 205.86,-321.5 199.86,-321.5 193.86,-315.5 193.86,-309.5 193.86,-309.5 193.86,-205.5 193.86,-205.5 193.86,-199.5 199.86,-193.5 205.86,-193.5"/>
<text text-anchor="middle" x="317.72" y="-306.3" font-family="Times,serif" font-size="14.00">Book</text>
<polyline fill="none" stroke="black" points="193.86,-299.5 441.58,-299.5 "/>
<text text-anchor="start" x="201.86" y="-284.3" font-family="Times,serif" font-size="14.00">id :integer</text>
<text text-anchor="start" x="201.86" y="-270.3" font-family="Times,serif" font-size="14.00">testament_id :integer</text>
<text text-anchor="start" x="201.86" y="-256.3" font-family="Times,serif" font-size="14.00">ordinal :integer</text>
<text text-anchor="start" x="201.86" y="-242.3" font-family="Times,serif" font-size="14.00">name :character varying</text>
<text text-anchor="start" x="201.86" y="-228.3" font-family="Times,serif" font-size="14.00">slug :character varying</text>
<text text-anchor="start" x="201.86" y="-214.3" font-family="Times,serif" font-size="14.00">created_at :timestamp without time zone</text>
<text text-anchor="start" x="201.86" y="-200.3" font-family="Times,serif" font-size="14.00">updated_at :timestamp without time zone</text>
</g>
<!-- Testament&#45;&gt;Book -->
<g id="edge1" class="edge">
<title>Testament&#45;&gt;Book</title>
<path fill="none" stroke="#1d4575" d="M317.72,-350.22C317.72,-344.24 317.72,-338.12 317.72,-331.99"/>
<ellipse fill="none" stroke="#1d4575" cx="317.72" cy="-354.3" rx="4" ry="4"/>
<polygon fill="#1d4575" stroke="#1d4575" points="317.72,-331.73 322.22,-321.73 317.72,-326.73 317.72,-321.73 317.72,-321.73 317.72,-321.73 317.72,-326.73 313.22,-321.73 317.72,-331.73 317.72,-331.73"/>
</g>
<!-- Book&#45;&gt;Verse -->
<g id="edge2" class="edge">
<title>Book&#45;&gt;Verse</title>
<path fill="none" stroke="#852cf5" d="M370.19,-186.68C375.5,-179.6 380.95,-172.35 386.38,-165.13"/>
<ellipse fill="none" stroke="#852cf5" cx="367.76" cy="-189.9" rx="4" ry="4"/>
<polygon fill="#852cf5" stroke="#852cf5" points="386.72,-164.67 396.33,-159.38 389.72,-160.67 392.73,-156.68 392.73,-156.68 392.73,-156.68 389.72,-160.67 389.13,-153.97 386.72,-164.67 386.72,-164.67"/>
</g>
<!-- Bible -->
<g id="node5" class="node">
<title>Bible</title>
<path fill="none" stroke="black" d="M471.86,-200.5C471.86,-200.5 695.58,-200.5 695.58,-200.5 701.58,-200.5 707.58,-206.5 707.58,-212.5 707.58,-212.5 707.58,-302.5 707.58,-302.5 707.58,-308.5 701.58,-314.5 695.58,-314.5 695.58,-314.5 471.86,-314.5 471.86,-314.5 465.86,-314.5 459.86,-308.5 459.86,-302.5 459.86,-302.5 459.86,-212.5 459.86,-212.5 459.86,-206.5 465.86,-200.5 471.86,-200.5"/>
<text text-anchor="middle" x="583.72" y="-299.3" font-family="Times,serif" font-size="14.00">Bible</text>
<polyline fill="none" stroke="black" points="459.86,-292.5 707.58,-292.5 "/>
<text text-anchor="start" x="467.86" y="-277.3" font-family="Times,serif" font-size="14.00">id :integer</text>
<text text-anchor="start" x="467.86" y="-263.3" font-family="Times,serif" font-size="14.00">name :character varying</text>
<text text-anchor="start" x="467.86" y="-249.3" font-family="Times,serif" font-size="14.00">abbreviation :character varying</text>
<text text-anchor="start" x="467.86" y="-235.3" font-family="Times,serif" font-size="14.00">slug :character varying</text>
<text text-anchor="start" x="467.86" y="-221.3" font-family="Times,serif" font-size="14.00">created_at :timestamp without time zone</text>
<text text-anchor="start" x="467.86" y="-207.3" font-family="Times,serif" font-size="14.00">updated_at :timestamp without time zone</text>
</g>
<!-- Bible&#45;&gt;Verse -->
<g id="edge3" class="edge">
<title>Bible&#45;&gt;Verse</title>
<path fill="none" stroke="#7fd64a" d="M536.69,-193.91C529.64,-184.53 522.28,-174.73 514.95,-164.98"/>
<ellipse fill="none" stroke="#7fd64a" cx="539.24" cy="-197.3" rx="4" ry="4"/>
<polygon fill="#7fd64a" stroke="#7fd64a" points="514.82,-164.81 512.41,-154.11 511.82,-160.81 508.81,-156.81 508.81,-156.81 508.81,-156.81 511.82,-160.81 505.22,-159.52 514.82,-164.81 514.82,-164.81"/>
</g>
</g>
</svg>
