<?xml version="1.0" encoding="UTF-8" standalone="no"?>
<!DOCTYPE svg PUBLIC "-//W3C//DTD SVG 1.1//EN"
 "http://www.w3.org/Graphics/SVG/1.1/DTD/svg11.dtd">
<!-- Generated by graphviz version 2.38.0 (20140413.2041)
 -->
<!-- Title: models_diagram Pages: 1 -->
<svg width="294pt" height="225pt"
 viewBox="0.00 0.00 294.04 225.00" xmlns="http://www.w3.org/2000/svg" xmlns:xlink="http://www.w3.org/1999/xlink">
<g id="graph0" class="graph" transform="scale(1 1) rotate(0) translate(4 221)">
<title>models_diagram</title>
<polygon fill="none" stroke="none" points="-4,4 -4,-221 290.043,-221 290.043,4 -4,4"/>
<!-- _diagram_info -->
<g id="node1" class="node"><title>_diagram_info</title>
<text text-anchor="start" x="8" y="-202.6" font-family="Times,serif" font-size="13.00">Models diagram</text>
<text text-anchor="start" x="8" y="-189.6" font-family="Times,serif" font-size="13.00">Date: Dec 09 2015 &#45; 11:40</text>
<text text-anchor="start" x="8" y="-176.6" font-family="Times,serif" font-size="13.00">Migration version: 1</text>
<text text-anchor="start" x="8" y="-163.6" font-family="Times,serif" font-size="13.00">Generated by RailRoady 1.4.2</text>
<text text-anchor="start" x="8" y="-150.6" font-family="Times,serif" font-size="13.00">http://railroady.prestonlee.com</text>
</g>
<!-- Bible -->
<g id="node2" class="node"><title>Bible</title>
<ellipse fill="none" stroke="black" cx="162.72" cy="-90" rx="29.0343" ry="18"/>
<text text-anchor="middle" x="162.72" y="-85.8" font-family="Times,serif" font-size="14.00">Bible</text>
</g>
<!-- Verse -->
<g id="node5" class="node"><title>Verse</title>
<ellipse fill="none" stroke="black" cx="200.72" cy="-18" rx="30.0018" ry="18"/>
<text text-anchor="middle" x="200.72" y="-13.8" font-family="Times,serif" font-size="14.00">Verse</text>
</g>
<!-- Bible&#45;&gt;Verse -->
<g id="edge1" class="edge"><title>Bible&#45;&gt;Verse</title>
<path fill="none" stroke="#32128d" d="M175.431,-65.5853C179.094,-58.837 183.109,-51.441 186.84,-44.5692"/>
<ellipse fill="none" stroke="#32128d" cx="173.442" cy="-69.2492" rx="4.00002" ry="4.00002"/>
<polygon fill="#32128d" stroke="#32128d" points="186.92,-44.4219 195.646,-37.7803 189.305,-40.0277 191.691,-35.6334 191.691,-35.6334 191.691,-35.6334 189.305,-40.0277 187.736,-33.4865 186.92,-44.4219 186.92,-44.4219"/>
</g>
<!-- Book -->
<g id="node3" class="node"><title>Book</title>
<ellipse fill="none" stroke="black" cx="239.72" cy="-90" rx="29.0429" ry="18"/>
<text text-anchor="middle" x="239.72" y="-85.8" font-family="Times,serif" font-size="14.00">Book</text>
</g>
<!-- Book&#45;&gt;Verse -->
<g id="edge2" class="edge"><title>Book&#45;&gt;Verse</title>
<path fill="none" stroke="#c482f0" d="M226.675,-65.5853C222.915,-58.837 218.795,-51.441 214.966,-44.5692"/>
<ellipse fill="none" stroke="#c482f0" cx="228.728" cy="-69.2704" rx="4.00002" ry="4.00002"/>
<polygon fill="#c482f0" stroke="#c482f0" points="214.854,-44.3691 213.918,-33.4432 212.421,-40.0012 209.987,-35.6334 209.987,-35.6334 209.987,-35.6334 212.421,-40.0012 206.056,-37.8236 214.854,-44.3691 214.854,-44.3691"/>
</g>
<!-- Testament -->
<g id="node4" class="node"><title>Testament</title>
<ellipse fill="none" stroke="black" cx="239.72" cy="-180.5" rx="46.1461" ry="18"/>
<text text-anchor="middle" x="239.72" y="-176.3" font-family="Times,serif" font-size="14.00">Testament</text>
</g>
<!-- Testament&#45;&gt;Book -->
<g id="edge3" class="edge"><title>Testament&#45;&gt;Book</title>
<path fill="none" stroke="#432846" d="M239.72,-154.189C239.72,-142.971 239.72,-129.752 239.72,-118.311"/>
<ellipse fill="none" stroke="#432846" cx="239.72" cy="-158.436" rx="4" ry="4"/>
<polygon fill="#432846" stroke="#432846" points="239.72,-118.011 244.22,-108.011 239.72,-113.011 239.72,-108.011 239.72,-108.011 239.72,-108.011 239.72,-113.011 235.22,-108.011 239.72,-118.011 239.72,-118.011"/>
</g>
</g>
</svg>
